<svg width="591" height="189" viewBox="0 0 591 189" fill="none" xmlns="http://www.w3.org/2000/svg">
<path d="M201.281 108.208C201.281 113.499 200.513 118.363 198.977 122.8C197.441 127.152 195.222 130.907 192.321 134.064C189.42 137.136 185.921 139.525 181.825 141.232C177.814 142.939 173.292 143.792 168.257 143.792C163.308 143.792 158.785 142.939 154.689 141.232C150.678 139.525 147.222 137.136 144.321 134.064C141.42 130.907 139.158 127.152 137.537 122.8C135.916 118.363 135.105 113.499 135.105 108.208C135.105 102.917 135.916 98.096 137.537 93.744C139.244 89.392 141.548 85.68 144.449 82.608C147.436 79.536 150.934 77.1467 154.945 75.44C159.041 73.7333 163.478 72.88 168.257 72.88C173.121 72.88 177.558 73.7333 181.569 75.44C185.665 77.1467 189.164 79.536 192.065 82.608C194.966 85.68 197.228 89.392 198.849 93.744C200.47 98.096 201.281 102.917 201.281 108.208ZM181.825 108.208C181.825 102.32 180.63 97.712 178.241 94.384C175.937 90.9707 172.609 89.264 168.257 89.264C163.905 89.264 160.534 90.9707 158.145 94.384C155.756 97.712 154.561 102.32 154.561 108.208C154.561 114.096 155.756 118.789 158.145 122.288C160.534 125.701 163.905 127.408 168.257 127.408C172.609 127.408 175.937 125.701 178.241 122.288C180.63 118.789 181.825 114.096 181.825 108.208ZM264.951 107.824C264.951 95.536 260.428 89.392 251.383 89.392C249.42 89.392 247.458 89.648 245.495 90.16C243.618 90.672 242.082 91.312 240.887 92.08V126.768C241.826 126.939 243.02 127.109 244.471 127.28C245.922 127.365 247.5 127.408 249.207 127.408C254.412 127.408 258.338 125.616 260.983 122.032C263.628 118.448 264.951 113.712 264.951 107.824ZM284.407 108.336C284.407 113.712 283.596 118.576 281.975 122.928C280.439 127.28 278.178 130.992 275.191 134.064C272.204 137.136 268.535 139.525 264.183 141.232C259.831 142.853 254.882 143.664 249.335 143.664C247.031 143.664 244.599 143.536 242.039 143.28C239.564 143.109 237.09 142.853 234.615 142.512C232.226 142.171 229.922 141.787 227.703 141.36C225.484 140.848 223.522 140.336 221.815 139.824V45.744L240.887 42.672V76.208C243.02 75.2693 245.239 74.544 247.543 74.032C249.847 73.52 252.322 73.264 254.967 73.264C259.746 73.264 263.97 74.1173 267.639 75.824C271.308 77.4453 274.38 79.792 276.855 82.864C279.33 85.936 281.207 89.648 282.487 94C283.767 98.2667 284.407 103.045 284.407 108.336ZM476.593 128.688C478.47 128.688 480.262 128.645 481.969 128.56C483.676 128.475 485.041 128.347 486.065 128.176V113.712C485.297 113.541 484.145 113.371 482.609 113.2C481.073 113.029 479.665 112.944 478.385 112.944C476.593 112.944 474.886 113.072 473.265 113.328C471.729 113.499 470.364 113.883 469.169 114.48C467.974 115.077 467.036 115.888 466.353 116.912C465.67 117.936 465.329 119.216 465.329 120.752C465.329 123.739 466.31 125.829 468.273 127.024C470.321 128.133 473.094 128.688 476.593 128.688ZM475.057 72.88C480.689 72.88 485.382 73.52 489.137 74.8C492.892 76.08 495.878 77.9147 498.097 80.304C500.401 82.6933 502.022 85.5947 502.961 89.008C503.9 92.4213 504.369 96.2187 504.369 100.4V140.08C501.638 140.677 497.841 141.36 492.977 142.128C488.113 142.981 482.225 143.408 475.313 143.408C470.961 143.408 466.993 143.024 463.409 142.256C459.91 141.488 456.881 140.251 454.321 138.544C451.761 136.752 449.798 134.448 448.433 131.632C447.068 128.816 446.385 125.36 446.385 121.264C446.385 117.339 447.153 114.011 448.689 111.28C450.31 108.549 452.444 106.373 455.089 104.752C457.734 103.131 460.764 101.979 464.177 101.296C467.59 100.528 471.132 100.144 474.801 100.144C477.276 100.144 479.452 100.272 481.329 100.528C483.292 100.699 484.87 100.955 486.065 101.296V99.504C486.065 96.2613 485.084 93.6587 483.121 91.696C481.158 89.7333 477.745 88.752 472.881 88.752C469.638 88.752 466.438 89.008 463.281 89.52C460.124 89.9467 457.393 90.5867 455.089 91.44L452.657 76.08C453.766 75.7387 455.132 75.3973 456.753 75.056C458.46 74.6293 460.294 74.288 462.257 74.032C464.22 73.6907 466.268 73.4347 468.401 73.264C470.62 73.008 472.838 72.88 475.057 72.88Z" fill="white"/>
<path d="M198.977 122.8L201.806 123.798L201.809 123.79L201.812 123.781L198.977 122.8ZM192.321 134.064L194.502 136.124L194.516 136.109L194.53 136.094L192.321 134.064ZM181.825 141.232L180.671 138.463L180.661 138.467L180.65 138.472L181.825 141.232ZM154.689 141.232L153.514 143.992L153.525 143.997L153.535 144.001L154.689 141.232ZM144.321 134.064L142.112 136.094L142.126 136.109L142.14 136.124L144.321 134.064ZM137.537 122.8L134.719 123.83L134.722 123.838L134.726 123.847L137.537 122.8ZM137.537 93.744L134.744 92.6487L134.735 92.6726L134.726 92.6967L137.537 93.744ZM144.449 82.608L142.298 80.5168L142.283 80.5323L142.268 80.5481L144.449 82.608ZM154.945 75.44L153.791 72.6708L153.781 72.6751L153.77 72.6795L154.945 75.44ZM181.569 75.44L180.394 78.2005L180.405 78.2049L180.415 78.2092L181.569 75.44ZM192.065 82.608L189.884 84.6679L189.884 84.6679L192.065 82.608ZM198.849 93.744L196.038 94.7913L196.038 94.7913L198.849 93.744ZM178.241 94.384L175.754 96.0624L175.779 96.0984L175.804 96.1336L178.241 94.384ZM158.145 94.384L160.582 96.1336L160.592 96.1191L160.603 96.1044L158.145 94.384ZM158.145 122.288L155.668 123.98L155.677 123.994L155.687 124.008L158.145 122.288ZM178.241 122.288L175.764 120.596L175.759 120.603L175.754 120.61L178.241 122.288ZM198.281 108.208C198.281 113.207 197.556 117.734 196.142 121.819L201.812 123.781C203.47 118.991 204.281 113.791 204.281 108.208H198.281ZM196.148 121.802C194.737 125.801 192.719 129.197 190.112 132.034L194.53 136.094C197.726 132.616 200.146 128.503 201.806 123.798L196.148 121.802ZM190.14 132.004C187.542 134.755 184.399 136.91 180.671 138.463L182.979 144.001C187.443 142.141 191.297 139.517 194.502 136.124L190.14 132.004ZM180.65 138.472C177.064 139.998 172.95 140.792 168.257 140.792V146.792C173.633 146.792 178.564 145.88 183 143.992L180.65 138.472ZM168.257 140.792C163.658 140.792 159.533 140 155.843 138.463L153.535 144.001C158.037 145.877 162.957 146.792 168.257 146.792V140.792ZM155.864 138.472C152.221 136.921 149.111 134.766 146.502 132.004L142.14 136.124C145.334 139.506 149.136 142.129 153.514 143.992L155.864 138.472ZM146.53 132.034C143.912 129.185 141.846 125.772 140.348 121.753L134.726 123.847C136.471 128.532 138.927 132.628 142.112 136.094L146.53 132.034ZM140.355 121.77C138.868 117.7 138.105 113.189 138.105 108.208H132.105C132.105 113.808 132.964 119.025 134.719 123.83L140.355 121.77ZM138.105 108.208C138.105 103.226 138.868 98.765 140.348 94.7913L134.726 92.6967C132.963 97.427 132.105 102.609 132.105 108.208H138.105ZM140.33 94.8393C141.911 90.807 144.019 87.4322 146.63 84.6679L142.268 80.5481C139.076 83.9278 136.576 87.977 134.744 92.6487L140.33 94.8393ZM146.6 84.6992C149.304 81.918 152.469 79.7539 156.12 78.2005L153.77 72.6795C149.4 74.5395 145.567 77.154 142.298 80.5168L146.6 84.6992ZM156.099 78.2092C159.802 76.6663 163.844 75.88 168.257 75.88V69.88C163.113 69.88 158.28 70.8004 153.791 72.6708L156.099 78.2092ZM168.257 75.88C172.764 75.88 176.796 76.6692 180.394 78.2005L182.744 72.6795C178.321 70.7974 173.478 69.88 168.257 69.88V75.88ZM180.415 78.2092C184.143 79.7624 187.286 81.917 189.884 84.6679L194.246 80.5481C191.041 77.155 187.187 74.531 182.723 72.6708L180.415 78.2092ZM189.884 84.6679C192.483 87.4202 194.543 90.7781 196.038 94.7913L201.66 92.6967C199.913 88.0059 197.449 83.9398 194.246 80.5481L189.884 84.6679ZM196.038 94.7913C197.518 98.765 198.281 103.226 198.281 108.208H204.281C204.281 102.609 203.423 97.427 201.66 92.6967L196.038 94.7913ZM184.825 108.208C184.825 101.956 183.562 96.6514 180.678 92.6344L175.804 96.1336C177.699 98.7726 178.825 102.684 178.825 108.208H184.825ZM180.728 92.7056C177.829 88.4116 173.539 86.264 168.257 86.264V92.264C171.679 92.264 174.045 93.5297 175.754 96.0624L180.728 92.7056ZM168.257 86.264C162.978 86.264 158.667 88.4069 155.687 92.6636L160.603 96.1044C162.402 93.5345 164.832 92.264 168.257 92.264V86.264ZM155.708 92.6344C152.824 96.6514 151.561 101.956 151.561 108.208H157.561C157.561 102.684 158.687 98.7726 160.582 96.1336L155.708 92.6344ZM151.561 108.208C151.561 114.472 152.829 119.823 155.668 123.98L160.622 120.596C158.683 117.756 157.561 113.72 157.561 108.208H151.561ZM155.687 124.008C158.667 128.265 162.978 130.408 168.257 130.408V124.408C164.832 124.408 162.402 123.138 160.603 120.568L155.687 124.008ZM168.257 130.408C173.539 130.408 177.829 128.26 180.728 123.966L175.754 120.61C174.045 123.142 171.679 124.408 168.257 124.408V130.408ZM180.718 123.98C183.557 119.823 184.825 114.472 184.825 108.208H178.825C178.825 113.72 177.703 117.756 175.764 120.596L180.718 123.98ZM245.495 90.16L244.738 87.2571L244.722 87.2613L244.706 87.2657L245.495 90.16ZM240.887 92.08L239.265 89.5565L237.887 90.4421V92.08H240.887ZM240.887 126.768H237.887V129.272L240.35 129.72L240.887 126.768ZM244.471 127.28L244.12 130.259L244.207 130.27L244.295 130.275L244.471 127.28ZM260.983 122.032L263.397 123.814L263.397 123.814L260.983 122.032ZM281.975 122.928L279.164 121.881L279.155 121.905L279.146 121.93L281.975 122.928ZM275.191 134.064L273.04 131.973L275.191 134.064ZM264.183 141.232L265.23 144.043L265.254 144.034L265.278 144.025L264.183 141.232ZM242.039 143.28L242.338 140.295L242.292 140.29L242.245 140.287L242.039 143.28ZM234.615 142.512L234.191 145.482L234.198 145.483L234.205 145.484L234.615 142.512ZM227.703 141.36L227.028 144.283L227.082 144.296L227.136 144.306L227.703 141.36ZM221.815 139.824H218.815V142.056L220.953 142.697L221.815 139.824ZM221.815 45.744L221.338 42.7822L218.815 43.1885V45.744H221.815ZM240.887 42.672H243.887V39.1501L240.41 39.7102L240.887 42.672ZM240.887 76.208H237.887V80.8056L242.095 78.9539L240.887 76.208ZM247.543 74.032L248.194 76.9606L248.194 76.9606L247.543 74.032ZM267.639 75.824L266.374 78.5442L266.4 78.5564L266.427 78.5681L267.639 75.824ZM276.855 82.864L274.519 84.746L274.519 84.746L276.855 82.864ZM282.487 94L279.609 94.8465L279.611 94.8543L279.614 94.862L282.487 94ZM267.951 107.824C267.951 101.4 266.785 96.0382 263.975 92.2215C261.039 88.2332 256.659 86.392 251.383 86.392V92.392C255.152 92.392 257.556 93.6228 259.143 95.7785C260.856 98.1057 261.951 101.96 261.951 107.824H267.951ZM251.383 86.392C249.156 86.392 246.939 86.6828 244.738 87.2571L246.252 93.0628C247.976 92.6132 249.684 92.392 251.383 92.392V86.392ZM244.706 87.2657C242.634 87.8306 240.792 88.5747 239.265 89.5565L242.509 94.6035C243.371 94.0493 244.601 93.5134 246.284 93.0543L244.706 87.2657ZM237.887 92.08V126.768H243.887V92.08H237.887ZM240.35 129.72C241.374 129.906 242.636 130.085 244.12 130.259L244.822 124.301C243.404 124.134 242.277 123.972 241.424 123.816L240.35 129.72ZM244.295 130.275C245.813 130.364 247.451 130.408 249.207 130.408V124.408C247.549 124.408 246.03 124.367 244.647 124.285L244.295 130.275ZM249.207 130.408C255.182 130.408 260.086 128.3 263.397 123.814L258.569 120.25C256.59 122.932 253.642 124.408 249.207 124.408V130.408ZM263.397 123.814C266.529 119.57 267.951 114.148 267.951 107.824H261.951C261.951 113.276 260.728 117.326 258.569 120.25L263.397 123.814ZM281.407 108.336C281.407 113.41 280.642 117.912 279.164 121.881L284.786 123.975C286.55 119.24 287.407 114.014 287.407 108.336H281.407ZM279.146 121.93C277.743 125.905 275.702 129.235 273.04 131.973L277.342 136.155C280.654 132.749 283.135 128.655 284.804 123.926L279.146 121.93ZM273.04 131.973C270.378 134.711 267.079 136.874 263.088 138.439L265.278 144.025C269.992 142.177 274.031 139.561 277.342 136.155L273.04 131.973ZM263.136 138.421C259.177 139.896 254.592 140.664 249.335 140.664V146.664C255.172 146.664 260.485 145.811 265.23 144.043L263.136 138.421ZM249.335 140.664C247.141 140.664 244.81 140.542 242.338 140.295L241.741 146.265C244.388 146.53 246.921 146.664 249.335 146.664V140.664ZM242.245 140.287C239.839 140.121 237.432 139.872 235.025 139.54L234.205 145.484C236.747 145.834 239.289 146.097 241.833 146.273L242.245 140.287ZM235.039 139.542C232.694 139.207 230.438 138.831 228.27 138.414L227.136 144.306C229.405 144.742 231.757 145.134 234.191 145.482L235.039 139.542ZM228.378 138.437C226.206 137.936 224.308 137.44 222.677 136.951L220.953 142.697C222.736 143.232 224.763 143.76 227.028 144.283L228.378 138.437ZM224.815 139.824V45.744H218.815V139.824H224.815ZM222.292 48.7058L241.364 45.6338L240.41 39.7102L221.338 42.7822L222.292 48.7058ZM237.887 42.672V76.208H243.887V42.672H237.887ZM242.095 78.9539C244.047 78.0952 246.079 77.4306 248.194 76.9606L246.892 71.1034C244.399 71.6574 241.994 72.4435 239.679 73.4621L242.095 78.9539ZM248.194 76.9606C250.26 76.5013 252.515 76.264 254.967 76.264V70.264C252.129 70.264 249.434 70.5387 246.892 71.1034L248.194 76.9606ZM254.967 76.264C259.387 76.264 263.166 77.0522 266.374 78.5442L268.904 73.1038C264.773 71.1825 260.105 70.264 254.967 70.264V76.264ZM266.427 78.5681C269.666 79.9993 272.35 82.0534 274.519 84.746L279.191 80.982C276.411 77.5306 272.951 74.8914 268.852 73.0799L266.427 78.5681ZM274.519 84.746C276.712 87.4692 278.423 90.8158 279.609 94.8465L285.365 93.1535C283.991 88.4802 281.947 84.4028 279.191 80.982L274.519 84.746ZM279.614 94.862C280.796 98.8024 281.407 103.284 281.407 108.336H287.407C287.407 102.806 286.738 97.7309 285.36 93.138L279.614 94.862ZM481.969 128.56L482.119 131.556L482.119 131.556L481.969 128.56ZM486.065 128.176L486.558 131.135L489.065 130.717V128.176H486.065ZM486.065 113.712H489.065V111.305L486.716 110.783L486.065 113.712ZM473.265 113.328L473.596 116.31L473.665 116.302L473.733 116.291L473.265 113.328ZM469.169 114.48L470.511 117.163L470.511 117.163L469.169 114.48ZM468.273 127.024L466.713 129.587L466.778 129.626L466.844 129.662L468.273 127.024ZM498.097 80.304L495.899 82.3453L495.918 82.3661L495.937 82.3864L498.097 80.304ZM502.961 89.008L505.854 88.2125L505.854 88.2125L502.961 89.008ZM504.369 140.08L505.01 143.011L507.369 142.495V140.08H504.369ZM492.977 142.128L492.509 139.165L492.484 139.169L492.459 139.173L492.977 142.128ZM463.409 142.256L462.766 145.186L462.773 145.188L462.78 145.189L463.409 142.256ZM454.321 138.544L452.601 141.002L452.629 141.021L452.657 141.04L454.321 138.544ZM448.433 131.632L451.132 130.323L448.433 131.632ZM448.689 111.28L446.109 109.748L446.091 109.779L446.074 109.809L448.689 111.28ZM455.089 104.752L456.657 107.31L456.657 107.31L455.089 104.752ZM464.177 101.296L464.765 104.238L464.801 104.231L464.836 104.223L464.177 101.296ZM481.329 100.528L480.924 103.5L480.996 103.51L481.069 103.517L481.329 100.528ZM486.065 101.296L485.241 104.181L489.065 105.273V101.296H486.065ZM463.281 89.52L463.683 92.493L463.722 92.4877L463.761 92.4813L463.281 89.52ZM455.089 91.44L452.126 91.9092L452.698 95.5246L456.131 94.2532L455.089 91.44ZM452.657 76.08L451.775 73.2127L449.287 73.9782L449.694 76.5491L452.657 76.08ZM456.753 75.056L457.371 77.9917L457.426 77.9801L457.481 77.9664L456.753 75.056ZM462.257 74.032L462.645 77.0068L462.708 76.9986L462.771 76.9876L462.257 74.032ZM468.401 73.264L468.64 76.2544L468.693 76.2503L468.745 76.2442L468.401 73.264ZM476.593 131.688C478.515 131.688 480.358 131.644 482.119 131.556L481.819 125.564C480.167 125.646 478.425 125.688 476.593 125.688V131.688ZM482.119 131.556C483.877 131.468 485.372 131.333 486.558 131.135L485.572 125.217C484.71 125.36 483.474 125.481 481.819 125.564L482.119 131.556ZM489.065 128.176V113.712H483.065V128.176H489.065ZM486.716 110.783C485.785 110.577 484.502 110.392 482.94 110.218L482.278 116.182C483.788 116.349 484.809 116.506 485.414 116.641L486.716 110.783ZM482.94 110.218C481.316 110.038 479.796 109.944 478.385 109.944V115.944C479.534 115.944 480.83 116.021 482.278 116.182L482.94 110.218ZM478.385 109.944C476.45 109.944 474.587 110.082 472.797 110.365L473.733 116.291C475.186 116.062 476.736 115.944 478.385 115.944V109.944ZM472.934 110.346C471.1 110.55 469.384 111.018 467.827 111.797L470.511 117.163C471.343 116.747 472.358 116.447 473.596 116.31L472.934 110.346ZM467.827 111.797C466.207 112.607 464.854 113.753 463.857 115.248L468.849 118.576C469.218 118.023 469.742 117.548 470.511 117.163L467.827 111.797ZM463.857 115.248C462.773 116.874 462.329 118.771 462.329 120.752H468.329C468.329 119.661 468.568 118.998 468.849 118.576L463.857 115.248ZM462.329 120.752C462.329 124.428 463.588 127.685 466.713 129.587L469.833 124.461C469.032 123.974 468.329 123.049 468.329 120.752H462.329ZM466.844 129.662C469.497 131.099 472.826 131.688 476.593 131.688V125.688C473.363 125.688 471.145 125.168 469.702 124.386L466.844 129.662ZM475.057 75.88C480.486 75.88 484.827 76.5001 488.169 77.6395L490.105 71.9605C485.938 70.5399 480.892 69.88 475.057 69.88V75.88ZM488.169 77.6395C491.555 78.7937 494.083 80.3906 495.899 82.3453L500.295 78.2626C497.673 75.4388 494.229 73.3663 490.105 71.9605L488.169 77.6395ZM495.937 82.3864C497.87 84.3908 499.254 86.8405 500.068 89.8035L505.854 88.2125C504.791 84.3488 502.932 80.9959 500.257 78.2216L495.937 82.3864ZM500.068 89.8035C500.924 92.9158 501.369 96.4403 501.369 100.4H507.369C507.369 95.997 506.875 91.9268 505.854 88.2125L500.068 89.8035ZM501.369 100.4V140.08H507.369V100.4H501.369ZM503.728 137.149C501.082 137.728 497.352 138.4 492.509 139.165L493.445 145.091C498.33 144.32 502.195 143.627 505.01 143.011L503.728 137.149ZM492.459 139.173C487.818 139.987 482.114 140.408 475.313 140.408V146.408C482.336 146.408 488.408 145.975 493.495 145.083L492.459 139.173ZM475.313 140.408C471.134 140.408 467.381 140.039 464.038 139.323L462.78 145.189C466.605 146.009 470.788 146.408 475.313 146.408V140.408ZM464.052 139.326C460.859 138.625 458.188 137.517 455.985 136.048L452.657 141.04C455.574 142.985 458.962 144.351 462.766 145.186L464.052 139.326ZM456.041 136.086C453.901 134.588 452.275 132.68 451.132 130.323L445.734 132.941C447.322 136.216 449.621 138.916 452.601 141.002L456.041 136.086ZM451.132 130.323C450.016 128.021 449.385 125.041 449.385 121.264H443.385C443.385 125.679 444.119 129.611 445.734 132.941L451.132 130.323ZM449.385 121.264C449.385 117.726 450.077 114.932 451.304 112.751L446.074 109.809C444.229 113.089 443.385 116.952 443.385 121.264H449.385ZM451.269 112.812C452.647 110.49 454.437 108.67 456.657 107.31L453.521 102.194C450.45 104.076 447.974 106.609 446.109 109.748L451.269 112.812ZM456.657 107.31C458.966 105.894 461.657 104.859 464.765 104.238L463.589 98.3543C459.871 99.0978 456.502 100.367 453.521 102.194L456.657 107.31ZM464.836 104.223C468.022 103.506 471.342 103.144 474.801 103.144V97.144C470.921 97.144 467.158 97.5502 463.518 98.3692L464.836 104.223ZM474.801 103.144C477.179 103.144 479.214 103.267 480.924 103.5L481.734 97.5555C479.689 97.2766 477.373 97.144 474.801 97.144V103.144ZM481.069 103.517C482.938 103.679 484.305 103.913 485.241 104.181L486.889 98.4114C485.436 97.9961 483.646 97.7181 481.589 97.5393L481.069 103.517ZM489.065 101.296V99.504H483.065V101.296H489.065ZM489.065 99.504C489.065 95.6102 487.862 92.1945 485.242 89.5747L481 93.8173C482.305 95.1228 483.065 96.9125 483.065 99.504H489.065ZM485.242 89.5747C482.42 86.7519 477.987 85.752 472.881 85.752V91.752C477.503 91.752 479.897 92.7148 481 93.8173L485.242 89.5747ZM472.881 85.752C469.48 85.752 466.119 86.0206 462.801 86.5587L463.761 92.4813C466.758 91.9954 469.797 91.752 472.881 91.752V85.752ZM462.879 86.547C459.564 86.995 456.608 87.6781 454.047 88.6268L456.131 94.2532C458.178 93.4952 460.683 92.8983 463.683 92.493L462.879 86.547ZM458.052 90.9708L455.62 75.6108L449.694 76.5491L452.126 91.9092L458.052 90.9708ZM453.539 78.9473C454.534 78.6414 455.805 78.3214 457.371 77.9917L456.135 72.1203C454.459 72.4732 452.999 72.8359 451.775 73.2127L453.539 78.9473ZM457.481 77.9664C459.063 77.5709 460.783 77.2497 462.645 77.0068L461.869 71.0572C459.806 71.3263 457.857 71.6877 456.025 72.1456L457.481 77.9664ZM462.771 76.9876C464.636 76.6632 466.592 76.4183 468.64 76.2544L468.162 70.2736C465.943 70.451 463.803 70.7181 461.743 71.0764L462.771 76.9876ZM468.745 76.2442C470.85 76.0013 472.954 75.88 475.057 75.88V69.88C472.723 69.88 470.389 70.0147 468.057 70.2838L468.745 76.2442Z" fill="#0E2767"/>
<rect x="307" y="25" width="125" height="139" rx="25" fill="#2C38A2"/>
<path d="M388.023 138C385.549 133.051 382.818 128.059 379.831 123.024C376.93 117.904 373.559 112.699 369.719 107.408C368.525 108.944 366.989 111.077 365.111 113.808C363.319 116.539 361.485 119.44 359.607 122.512C357.815 125.584 356.109 128.528 354.487 131.344C352.866 134.16 351.671 136.379 350.903 138H328.119C331.874 131.088 336.226 123.835 341.175 116.24C346.21 108.645 351.799 100.581 357.943 92.048L329.399 49.296H353.591L370.871 76.944L387.767 49.296H410.551L382.391 92.304C389.559 101.605 395.575 110.224 400.439 118.16C405.303 126.011 409.143 132.624 411.959 138H388.023Z" fill="white"/>
<rect y="24" width="125" height="139" rx="25" fill="#2C38A2"/>
<path d="M87.9039 110.176C87.9039 114.528 87.3919 118.624 86.3679 122.464C85.4293 126.304 83.7226 129.675 81.2479 132.576C78.8586 135.392 75.5733 137.653 71.3919 139.36C67.2959 140.981 62.0906 141.792 55.7759 141.792C49.9733 141.792 44.9813 141.109 40.7999 139.744C36.6186 138.293 33.1626 136.629 30.4319 134.752L37.0879 119.264C39.5626 120.715 42.2079 121.995 45.0239 123.104C47.8399 124.213 50.9119 124.768 54.2399 124.768C59.1039 124.768 62.6026 123.573 64.7359 121.184C66.8693 118.795 67.9359 114.784 67.9359 109.152V51.296H87.9039V110.176Z" fill="white"/>
</svg>
