<svg width="591" height="189" viewBox="0 0 591 189" fill="none" xmlns="http://www.w3.org/2000/svg">
<path d="M201.281 108.208C201.281 113.499 200.513 118.363 198.977 122.8C197.441 127.152 195.222 130.907 192.321 134.064C189.42 137.136 185.921 139.525 181.825 141.232C177.814 142.939 173.292 143.792 168.257 143.792C163.308 143.792 158.785 142.939 154.689 141.232C150.678 139.525 147.222 137.136 144.321 134.064C141.42 130.907 139.158 127.152 137.537 122.8C135.916 118.363 135.105 113.499 135.105 108.208C135.105 102.917 135.916 98.096 137.537 93.744C139.244 89.392 141.548 85.68 144.449 82.608C147.436 79.536 150.934 77.1467 154.945 75.44C159.041 73.7333 163.478 72.88 168.257 72.88C173.121 72.88 177.558 73.7333 181.569 75.44C185.665 77.1467 189.164 79.536 192.065 82.608C194.966 85.68 197.228 89.392 198.849 93.744C200.47 98.096 201.281 102.917 201.281 108.208ZM181.825 108.208C181.825 102.32 180.63 97.712 178.241 94.384C175.937 90.9707 172.609 89.264 168.257 89.264C163.905 89.264 160.534 90.9707 158.145 94.384C155.756 97.712 154.561 102.32 154.561 108.208C154.561 114.096 155.756 118.789 158.145 122.288C160.534 125.701 163.905 127.408 168.257 127.408C172.609 127.408 175.937 125.701 178.241 122.288C180.63 118.789 181.825 114.096 181.825 108.208ZM264.951 107.824C264.951 95.536 260.428 89.392 251.383 89.392C249.42 89.392 247.458 89.648 245.495 90.16C243.618 90.672 242.082 91.312 240.887 92.08V126.768C241.826 126.939 243.02 127.109 244.471 127.28C245.922 127.365 247.5 127.408 249.207 127.408C254.412 127.408 258.338 125.616 260.983 122.032C263.628 118.448 264.951 113.712 264.951 107.824ZM284.407 108.336C284.407 113.712 283.596 118.576 281.975 122.928C280.439 127.28 278.178 130.992 275.191 134.064C272.204 137.136 268.535 139.525 264.183 141.232C259.831 142.853 254.882 143.664 249.335 143.664C247.031 143.664 244.599 143.536 242.039 143.28C239.564 143.109 237.09 142.853 234.615 142.512C232.226 142.171 229.922 141.787 227.703 141.36C225.484 140.848 223.522 140.336 221.815 139.824V45.744L240.887 42.672V76.208C243.02 75.2693 245.239 74.544 247.543 74.032C249.847 73.52 252.322 73.264 254.967 73.264C259.746 73.264 263.97 74.1173 267.639 75.824C271.308 77.4453 274.38 79.792 276.855 82.864C279.33 85.936 281.207 89.648 282.487 94C283.767 98.2667 284.407 103.045 284.407 108.336ZM476.593 128.688C478.47 128.688 480.262 128.645 481.969 128.56C483.676 128.475 485.041 128.347 486.065 128.176V113.712C485.297 113.541 484.145 113.371 482.609 113.2C481.073 113.029 479.665 112.944 478.385 112.944C476.593 112.944 474.886 113.072 473.265 113.328C471.729 113.499 470.364 113.883 469.169 114.48C467.974 115.077 467.036 115.888 466.353 116.912C465.67 117.936 465.329 119.216 465.329 120.752C465.329 123.739 466.31 125.829 468.273 127.024C470.321 128.133 473.094 128.688 476.593 128.688ZM475.057 72.88C480.689 72.88 485.382 73.52 489.137 74.8C492.892 76.08 495.878 77.9147 498.097 80.304C500.401 82.6933 502.022 85.5947 502.961 89.008C503.9 92.4213 504.369 96.2187 504.369 100.4V140.08C501.638 140.677 497.841 141.36 492.977 142.128C488.113 142.981 482.225 143.408 475.313 143.408C470.961 143.408 466.993 143.024 463.409 142.256C459.91 141.488 456.881 140.251 454.321 138.544C451.761 136.752 449.798 134.448 448.433 131.632C447.068 128.816 446.385 125.36 446.385 121.264C446.385 117.339 447.153 114.011 448.689 111.28C450.31 108.549 452.444 106.373 455.089 104.752C457.734 103.131 460.764 101.979 464.177 101.296C467.59 100.528 471.132 100.144 474.801 100.144C477.276 100.144 479.452 100.272 481.329 100.528C483.292 100.699 484.87 100.955 486.065 101.296V99.504C486.065 96.2613 485.084 93.6587 483.121 91.696C481.158 89.7333 477.745 88.752 472.881 88.752C469.638 88.752 466.438 89.008 463.281 89.52C460.124 89.9467 457.393 90.5867 455.089 91.44L452.657 76.08C453.766 75.7387 455.132 75.3973 456.753 75.056C458.46 74.6293 460.294 74.288 462.257 74.032C464.22 73.6907 466.268 73.4347 468.401 73.264C470.62 73.008 472.838 72.88 475.057 72.88Z" fill="black"/>
<path d="M198.977 122.8L199.92 123.133L199.922 123.127L198.977 122.8ZM192.321 134.064L193.048 134.751L193.057 134.741L192.321 134.064ZM181.825 141.232L181.44 140.309L181.433 140.312L181.825 141.232ZM154.689 141.232L154.297 142.152L154.304 142.155L154.689 141.232ZM144.321 134.064L143.585 134.741L143.594 134.751L144.321 134.064ZM137.537 122.8L136.598 123.143L136.6 123.149L137.537 122.8ZM137.537 93.744L136.606 93.3789L136.603 93.3869L136.6 93.3949L137.537 93.744ZM144.449 82.608L143.732 81.9109L143.727 81.9161L143.722 81.9214L144.449 82.608ZM154.945 75.44L154.56 74.5169L154.553 74.5198L154.945 75.44ZM181.569 75.44L181.177 76.3602L181.184 76.3631L181.569 75.44ZM192.065 82.608L191.338 83.2946L191.338 83.2946L192.065 82.608ZM198.849 93.744L197.912 94.0931L197.912 94.0931L198.849 93.744ZM178.241 94.384L177.412 94.9435L177.42 94.9555L177.429 94.9672L178.241 94.384ZM158.145 94.384L158.957 94.9672L158.964 94.9575L158.145 94.384ZM158.145 122.288L157.319 122.852L157.326 122.861L158.145 122.288ZM178.241 122.288L177.415 121.724L177.412 121.729L178.241 122.288ZM200.281 108.208C200.281 113.401 199.527 118.153 198.032 122.473L199.922 123.127C201.499 118.572 202.281 113.596 202.281 108.208H200.281ZM198.034 122.467C196.54 126.702 194.388 130.337 191.585 133.387L193.057 134.741C196.057 131.476 198.343 127.602 199.92 123.133L198.034 122.467ZM191.594 133.377C188.794 136.342 185.414 138.653 181.44 140.309L182.21 142.155C186.428 140.397 190.046 137.93 193.048 134.751L191.594 133.377ZM181.433 140.312C177.564 141.958 173.178 142.792 168.257 142.792V144.792C173.406 144.792 178.064 143.919 182.217 142.152L181.433 140.312ZM168.257 142.792C163.424 142.792 159.034 141.959 155.074 140.309L154.304 142.155C158.536 143.918 163.191 144.792 168.257 144.792V142.792ZM155.081 140.312C151.193 138.657 147.852 136.346 145.048 133.377L143.594 134.751C146.593 137.926 150.164 140.393 154.297 142.152L155.081 140.312ZM145.057 133.387C142.25 130.333 140.054 126.692 138.474 122.451L136.6 123.149C138.263 127.612 140.589 131.48 143.585 134.741L145.057 133.387ZM138.476 122.457C136.9 118.142 136.105 113.396 136.105 108.208H134.105C134.105 113.602 134.932 118.584 136.598 123.143L138.476 122.457ZM136.105 108.208C136.105 103.02 136.9 98.319 138.474 94.0931L136.6 93.3949C134.932 97.873 134.105 102.815 134.105 108.208H136.105ZM138.468 94.1091C140.133 89.8637 142.372 86.2641 145.176 83.2946L143.722 81.9214C140.724 85.0959 138.354 88.9203 136.606 93.3789L138.468 94.1091ZM145.166 83.3051C148.058 80.33 151.446 78.0157 155.337 76.3601L154.553 74.5198C150.423 76.2776 146.813 78.742 143.732 81.9109L145.166 83.3051ZM155.33 76.3631C159.295 74.711 163.6 73.88 168.257 73.88V71.88C163.357 71.88 158.787 72.7557 154.56 74.5169L155.33 76.3631ZM168.257 73.88C173.002 73.88 177.304 74.712 181.177 76.3601L181.961 74.5198C177.812 72.7547 173.24 71.88 168.257 71.88V73.88ZM181.184 76.3631C185.158 78.0186 188.538 80.3297 191.338 83.2946L192.792 81.9214C189.79 78.7423 186.172 76.2748 181.954 74.5169L181.184 76.3631ZM191.338 83.2946C194.139 86.2601 196.333 89.854 197.912 94.0931L199.786 93.3949C198.123 88.93 195.794 85.0999 192.792 81.9214L191.338 83.2946ZM197.912 94.0931C199.486 98.319 200.281 103.02 200.281 108.208H202.281C202.281 102.815 201.454 97.873 199.786 93.3949L197.912 94.0931ZM182.825 108.208C182.825 102.199 181.608 97.3585 179.053 93.8008L177.429 94.9672C179.653 98.0655 180.825 102.441 180.825 108.208H182.825ZM179.07 93.8245C176.568 90.1176 172.919 88.264 168.257 88.264V90.264C172.299 90.264 175.306 91.8237 177.412 94.9435L179.07 93.8245ZM168.257 88.264C163.596 88.264 159.912 90.1161 157.326 93.8105L158.964 94.9575C161.157 91.8253 164.214 90.264 168.257 90.264V88.264ZM157.333 93.8008C154.778 97.3585 153.561 102.199 153.561 108.208H155.561C155.561 102.441 156.733 98.0655 158.957 94.9672L157.333 93.8008ZM153.561 108.208C153.561 114.221 154.78 119.134 157.319 122.852L158.971 121.724C156.731 118.445 155.561 113.971 155.561 108.208H153.561ZM157.326 122.861C159.912 126.556 163.596 128.408 168.257 128.408V126.408C164.214 126.408 161.157 124.847 158.964 121.715L157.326 122.861ZM168.257 128.408C172.919 128.408 176.568 126.554 179.07 122.847L177.412 121.729C175.306 124.848 172.299 126.408 168.257 126.408V128.408ZM179.067 122.852C181.606 119.134 182.825 114.221 182.825 108.208H180.825C180.825 113.971 179.655 118.445 177.415 121.724L179.067 122.852ZM245.495 90.16L245.243 89.1923L245.232 89.1952L245.495 90.16ZM240.887 92.08L240.346 91.2388L239.887 91.534V92.08H240.887ZM240.887 126.768H239.887V127.603L240.708 127.752L240.887 126.768ZM244.471 127.28L244.354 128.273L244.383 128.277L244.412 128.278L244.471 127.28ZM260.983 122.032L261.788 122.626L261.788 122.626L260.983 122.032ZM281.975 122.928L281.038 122.579L281.035 122.587L281.032 122.595L281.975 122.928ZM275.191 134.064L274.474 133.367L275.191 134.064ZM264.183 141.232L264.532 142.169L264.54 142.166L264.548 142.163L264.183 141.232ZM242.039 143.28L242.139 142.285L242.123 142.283L242.108 142.282L242.039 143.28ZM234.615 142.512L234.474 143.502L234.478 143.503L234.615 142.512ZM227.703 141.36L227.478 142.334L227.496 142.339L227.514 142.342L227.703 141.36ZM221.815 139.824H220.815V140.568L221.528 140.782L221.815 139.824ZM221.815 45.744L221.656 44.7567L220.815 44.8922V45.744H221.815ZM240.887 42.672H241.887V41.498L240.728 41.6847L240.887 42.672ZM240.887 76.208H239.887V77.7405L241.29 77.1233L240.887 76.208ZM247.543 74.032L247.76 75.0082L247.76 75.0082L247.543 74.032ZM267.639 75.824L267.217 76.7307L267.226 76.7348L267.235 76.7387L267.639 75.824ZM276.855 82.864L276.076 83.4913L276.076 83.4913L276.855 82.864ZM282.487 94L281.528 94.2822L281.529 94.2873L282.487 94ZM265.951 107.824C265.951 101.587 264.808 96.7274 262.364 93.4072C259.878 90.0297 256.157 88.392 251.383 88.392V90.392C255.655 90.392 258.717 91.8263 260.754 94.5928C262.832 97.4166 263.951 101.773 263.951 107.824H265.951ZM251.383 88.392C249.332 88.392 247.285 88.6596 245.243 89.1924L245.747 91.1276C247.63 90.6364 249.508 90.392 251.383 90.392V88.392ZM245.232 89.1952C243.29 89.7249 241.652 90.3996 240.346 91.2388L241.428 92.9212C242.512 92.2244 243.945 91.6191 245.758 91.1248L245.232 89.1952ZM239.887 92.08V126.768H241.887V92.08H239.887ZM240.708 127.752C241.675 127.928 242.892 128.101 244.354 128.273L244.588 126.287C243.148 126.117 241.976 125.95 241.066 125.784L240.708 127.752ZM244.412 128.278C245.886 128.365 247.484 128.408 249.207 128.408V126.408C247.517 126.408 245.958 126.366 244.53 126.282L244.412 128.278ZM249.207 128.408C254.669 128.408 258.92 126.511 261.788 122.626L260.178 121.438C257.755 124.721 254.156 126.408 249.207 126.408V128.408ZM261.788 122.626C264.595 118.822 265.951 113.857 265.951 107.824H263.951C263.951 113.567 262.661 118.074 260.178 121.438L261.788 122.626ZM283.407 108.336C283.407 113.611 282.612 118.355 281.038 122.579L282.912 123.277C284.581 118.797 285.407 113.813 285.407 108.336H283.407ZM281.032 122.595C279.54 126.822 277.352 130.406 274.474 133.367L275.908 134.761C279.003 131.578 281.338 127.738 282.918 123.261L281.032 122.595ZM274.474 133.367C271.595 136.328 268.05 138.642 263.818 140.301L264.548 142.163C269.021 140.409 272.813 137.944 275.908 134.761L274.474 133.367ZM263.834 140.295C259.613 141.867 254.785 142.664 249.335 142.664V144.664C254.978 144.664 260.049 143.839 264.532 142.169L263.834 140.295ZM249.335 142.664C247.068 142.664 244.669 142.538 242.139 142.285L241.94 144.275C244.529 144.534 246.994 144.664 249.335 144.664V142.664ZM242.108 142.282C239.656 142.113 237.204 141.86 234.752 141.521L234.478 143.503C236.975 143.847 239.473 144.105 241.97 144.278L242.108 142.282ZM234.756 141.522C232.382 141.183 230.094 140.801 227.892 140.378L227.514 142.342C229.75 142.772 232.069 143.159 234.474 143.502L234.756 141.522ZM227.928 140.386C225.725 139.877 223.784 139.371 222.102 138.866L221.528 140.782C223.26 141.301 225.244 141.819 227.478 142.334L227.928 140.386ZM222.815 139.824V45.744H220.815V139.824H222.815ZM221.974 46.7313L241.046 43.6593L240.728 41.6847L221.656 44.7567L221.974 46.7313ZM239.887 42.672V76.208H241.887V42.672H239.887ZM241.29 77.1233C243.363 76.2113 245.519 75.5062 247.76 75.0082L247.326 73.0558C244.959 73.5818 242.678 74.3274 240.484 75.2927L241.29 77.1233ZM247.76 75.0082C249.985 74.5138 252.386 74.264 254.967 74.264V72.264C252.257 72.264 249.709 72.5262 247.326 73.0558L247.76 75.0082ZM254.967 74.264C259.626 74.264 263.702 75.0956 267.217 76.7307L268.061 74.9173C264.238 73.139 259.865 72.264 254.967 72.264V74.264ZM267.235 76.7387C270.761 78.2966 273.703 80.5458 276.076 83.4913L277.634 82.2367C275.057 79.0382 271.856 76.594 268.043 74.9093L267.235 76.7387ZM276.076 83.4913C278.457 86.4471 280.279 90.0373 281.528 94.2822L283.446 93.7178C282.135 89.2587 280.202 85.4249 277.634 82.2367L276.076 83.4913ZM281.529 94.2873C282.777 98.4452 283.407 103.125 283.407 108.336H285.407C285.407 102.966 284.757 98.0881 283.445 93.7126L281.529 94.2873ZM481.969 128.56L482.019 129.559L482.019 129.559L481.969 128.56ZM486.065 128.176L486.229 129.162L487.065 129.023V128.176H486.065ZM486.065 113.712H487.065V112.91L486.282 112.736L486.065 113.712ZM473.265 113.328L473.375 114.322L473.398 114.319L473.421 114.316L473.265 113.328ZM469.169 114.48L469.616 115.374L469.616 115.374L469.169 114.48ZM468.273 127.024L467.753 127.878L467.775 127.891L467.797 127.903L468.273 127.024ZM498.097 80.304L497.364 80.9844L497.371 80.9914L497.377 80.9981L498.097 80.304ZM502.961 89.008L503.925 88.7428L503.925 88.7428L502.961 89.008ZM504.369 140.08L504.583 141.057L505.369 140.885V140.08H504.369ZM492.977 142.128L492.821 141.14L492.813 141.142L492.804 141.143L492.977 142.128ZM463.409 142.256L463.195 143.233L463.199 143.234L463.409 142.256ZM454.321 138.544L453.748 139.363L453.757 139.37L453.766 139.376L454.321 138.544ZM448.433 131.632L449.333 131.196L448.433 131.632ZM448.689 111.28L447.829 110.769L447.823 110.78L447.817 110.79L448.689 111.28ZM455.089 104.752L455.612 105.605L455.612 105.605L455.089 104.752ZM464.177 101.296L464.373 102.277L464.385 102.274L464.397 102.272L464.177 101.296ZM481.329 100.528L481.194 101.519L481.218 101.522L481.242 101.524L481.329 100.528ZM486.065 101.296L485.79 102.258L487.065 102.622V101.296H486.065ZM463.281 89.52L463.415 90.511L463.428 90.5092L463.441 90.5071L463.281 89.52ZM455.089 91.44L454.101 91.5964L454.292 92.8015L455.436 92.3777L455.089 91.44ZM452.657 76.08L452.363 75.1242L451.534 75.3794L451.669 76.2364L452.657 76.08ZM456.753 75.056L456.959 76.0346L456.977 76.0307L456.996 76.0261L456.753 75.056ZM462.257 74.032L462.386 75.0236L462.407 75.0208L462.428 75.0172L462.257 74.032ZM468.401 73.264L468.481 74.2608L468.498 74.2594L468.516 74.2574L468.401 73.264ZM476.593 129.688C478.485 129.688 480.294 129.645 482.019 129.559L481.919 127.561C480.231 127.646 478.455 127.688 476.593 127.688V129.688ZM482.019 129.559C483.743 129.473 485.151 129.342 486.229 129.162L485.901 127.19C484.931 127.351 483.608 127.477 481.919 127.561L482.019 129.559ZM487.065 128.176V113.712H485.065V128.176H487.065ZM486.282 112.736C485.46 112.553 484.264 112.378 482.719 112.206L482.499 114.194C484.026 114.364 485.134 114.53 485.848 114.688L486.282 112.736ZM482.719 112.206C481.154 112.032 479.709 111.944 478.385 111.944V113.944C479.621 113.944 480.992 114.026 482.499 114.194L482.719 112.206ZM478.385 111.944C476.545 111.944 474.786 112.075 473.109 112.34L473.421 114.316C474.986 114.069 476.641 113.944 478.385 113.944V111.944ZM473.155 112.334C471.519 112.516 470.037 112.928 468.722 113.586L469.616 115.374C470.69 114.837 471.939 114.482 473.375 114.322L473.155 112.334ZM468.722 113.586C467.385 114.254 466.308 115.176 465.521 116.357L467.185 117.467C467.763 116.6 468.564 115.901 469.616 115.374L468.722 113.586ZM465.521 116.357C464.704 117.582 464.329 119.068 464.329 120.752H466.329C466.329 119.364 466.636 118.29 467.185 117.467L465.521 116.357ZM464.329 120.752C464.329 123.969 465.403 126.448 467.753 127.878L468.793 126.17C467.218 125.211 466.329 123.509 466.329 120.752H464.329ZM467.797 127.903C470.046 129.122 473.005 129.688 476.593 129.688V127.688C473.184 127.688 470.596 127.145 468.749 126.145L467.797 127.903ZM475.057 73.88C480.621 73.88 485.197 74.5134 488.814 75.7465L489.46 73.8535C485.568 72.5266 480.757 71.88 475.057 71.88V73.88ZM488.814 75.7465C492.446 76.9846 495.28 78.74 497.364 80.9844L498.83 79.6235C496.477 77.0894 493.337 75.1754 489.46 73.8535L488.814 75.7465ZM497.377 80.9981C499.557 83.2592 501.099 86.0099 501.997 89.2732L503.925 88.7428C502.945 85.1794 501.245 82.1275 498.817 79.6099L497.377 80.9981ZM501.997 89.2732C502.908 92.5862 503.369 96.2925 503.369 100.4H505.369C505.369 96.1448 504.891 92.2565 503.925 88.7428L501.997 89.2732ZM503.369 100.4V140.08H505.369V100.4H503.369ZM504.155 139.103C501.453 139.694 497.678 140.373 492.821 141.14L493.133 143.116C498.004 142.347 501.824 141.66 504.583 141.057L504.155 139.103ZM492.804 141.143C488.015 141.983 482.188 142.408 475.313 142.408V144.408C482.262 144.408 488.211 143.979 493.15 143.113L492.804 141.143ZM475.313 142.408C471.019 142.408 467.122 142.029 463.619 141.278L463.199 143.234C466.864 144.019 470.903 144.408 475.313 144.408V142.408ZM463.623 141.279C460.227 140.534 457.317 139.339 454.876 137.712L453.766 139.376C456.445 141.162 459.594 142.442 463.195 143.233L463.623 141.279ZM454.894 137.725C452.474 136.031 450.624 133.859 449.333 131.196L447.533 132.068C448.973 135.037 451.048 137.473 453.748 139.363L454.894 137.725ZM449.333 131.196C448.051 128.551 447.385 125.254 447.385 121.264H445.385C445.385 125.466 446.085 129.081 447.533 132.068L449.333 131.196ZM447.385 121.264C447.385 117.468 448.128 114.318 449.561 111.77L447.817 110.79C446.178 113.703 445.385 117.21 445.385 121.264H447.385ZM449.549 111.791C451.089 109.196 453.108 107.139 455.612 105.605L454.566 103.899C451.779 105.608 449.531 107.902 447.829 110.769L449.549 111.791ZM455.612 105.605C458.145 104.052 461.061 102.939 464.373 102.277L463.981 100.315C460.466 101.018 457.324 102.209 454.566 103.899L455.612 105.605ZM464.397 102.272C467.734 101.521 471.202 101.144 474.801 101.144V99.144C471.061 99.144 467.446 99.5354 463.957 100.32L464.397 102.272ZM474.801 101.144C477.243 101.144 479.372 101.27 481.194 101.519L481.464 99.5372C479.531 99.2735 477.308 99.144 474.801 99.144V101.144ZM481.242 101.524C483.174 101.692 484.682 101.941 485.79 102.258L486.34 100.334C485.059 99.9685 483.41 99.7051 481.416 99.5318L481.242 101.524ZM487.065 101.296V99.504H485.065V101.296H487.065ZM487.065 99.504C487.065 96.0443 486.01 93.1706 483.828 90.9889L482.414 92.4031C484.158 94.1467 485.065 96.4784 485.065 99.504H487.065ZM483.828 90.9889C481.579 88.7395 477.826 87.752 472.881 87.752V89.752C477.664 89.752 480.738 90.7271 482.414 92.4031L483.828 90.9889ZM472.881 87.752C469.585 87.752 466.332 88.0122 463.121 88.5329L463.441 90.5071C466.545 90.0038 469.691 89.752 472.881 89.752V87.752ZM463.147 88.529C459.937 88.9628 457.131 89.6171 454.742 90.5023L455.436 92.3777C457.655 91.5562 460.31 90.9305 463.415 90.511L463.147 88.529ZM456.077 91.2836L453.645 75.9236L451.669 76.2364L454.101 91.5964L456.077 91.2836ZM452.951 77.0358C454.022 76.7062 455.356 76.372 456.959 76.0346L456.547 74.0774C454.907 74.4226 453.511 74.7711 452.363 75.1242L452.951 77.0358ZM456.996 76.0261C458.661 75.6099 460.457 75.2752 462.386 75.0236L462.128 73.0404C460.132 73.3008 458.259 73.6488 456.51 74.0859L456.996 76.0261ZM462.428 75.0172C464.359 74.6815 466.376 74.4292 468.481 74.2608L468.321 72.2672C466.159 72.4401 464.081 72.6998 462.086 73.0468L462.428 75.0172ZM468.516 74.2574C470.696 74.0058 472.877 73.88 475.057 73.88V71.88C472.8 71.88 470.543 72.0102 468.286 72.2706L468.516 74.2574Z" fill="black"/>
<rect x="307" y="25" width="125" height="139" rx="25" fill="#2C38A2"/>
<path d="M388.023 138C385.549 133.051 382.818 128.059 379.831 123.024C376.93 117.904 373.559 112.699 369.719 107.408C368.525 108.944 366.989 111.077 365.111 113.808C363.319 116.539 361.485 119.44 359.607 122.512C357.815 125.584 356.109 128.528 354.487 131.344C352.866 134.16 351.671 136.379 350.903 138H328.119C331.874 131.088 336.226 123.835 341.175 116.24C346.21 108.645 351.799 100.581 357.943 92.048L329.399 49.296H353.591L370.871 76.944L387.767 49.296H410.551L382.391 92.304C389.559 101.605 395.575 110.224 400.439 118.16C405.303 126.011 409.143 132.624 411.959 138H388.023Z" fill="white"/>
<rect y="24" width="125" height="139" rx="25" fill="#2C38A2"/>
<path d="M87.9039 110.176C87.9039 114.528 87.3919 118.624 86.3679 122.464C85.4293 126.304 83.7226 129.675 81.2479 132.576C78.8586 135.392 75.5733 137.653 71.3919 139.36C67.2959 140.981 62.0906 141.792 55.7759 141.792C49.9733 141.792 44.9813 141.109 40.7999 139.744C36.6186 138.293 33.1626 136.629 30.4319 134.752L37.0879 119.264C39.5626 120.715 42.2079 121.995 45.0239 123.104C47.8399 124.213 50.9119 124.768 54.2399 124.768C59.1039 124.768 62.6026 123.573 64.7359 121.184C66.8693 118.795 67.9359 114.784 67.9359 109.152V51.296H87.9039V110.176Z" fill="white"/>
</svg>
